<svg xmlns="http://www.w3.org/2000/svg" viewBox="0 0 10.16 10.16"><defs><style>.cls-1{fill:#fff;}</style></defs><title>indesign</title><g id="레이어_2" data-name="레이어 2"><g id="레이어_1-2" data-name="레이어 1"><circle class="cls-1" cx="5.08" cy="5.08" r="4.62"/><path d="M5.08.91A4.17,4.17,0,1,1,.91,5.08,4.17,4.17,0,0,1,5.08.91m0-.91a5.08,5.08,0,1,0,5.08,5.08A5.07,5.07,0,0,0,5.08,0Z"/><path d="M4.15,7.26H3.24V2.83h.91Z"/><path d="M4.8,5.59a2,2,0,0,1,.35-1.23,1.12,1.12,0,0,1,.94-.45,1,1,0,0,1,.8.36V2.59h.88V7.26H7l-.05-.35a1,1,0,0,1-.84.41,1.12,1.12,0,0,1-.94-.46A2.06,2.06,0,0,1,4.8,5.59Zm.88.06a1.36,1.36,0,0,0,.16.71.53.53,0,0,0,.47.25.59.59,0,0,0,.58-.34V5a.59.59,0,0,0-.57-.35C5.89,4.62,5.68,5,5.68,5.65Z"/></g></g></svg>